<svg xmlns="http://www.w3.org/2000/svg" viewBox="0 0 211 250" width="211" height="250">
  <g fill="#8c50cf">
  <rect x="80" y="0" width="1" height="1"/>
  <rect x="79" y="1" width="3" height="2"/>
  <rect x="78" y="3" width="4" height="1"/>
  <rect x="77" y="4" width="5" height="2"/>
  <rect x="127" y="4" width="3" height="1"/>
  <rect x="126" y="5" width="5" height="1"/>
  <rect x="76" y="6" width="7" height="1"/>
  <rect x="126" y="6" width="6" height="2"/>
  <rect x="75" y="7" width="7" height="2"/>
  <rect x="126" y="8" width="7" height="1"/>
  <rect x="74" y="9" width="9" height="2"/>
  <rect x="126" y="9" width="8" height="2"/>
  <rect x="73" y="11" width="10" height="2"/>
  <rect x="125" y="11" width="10" height="1"/>
  <rect x="125" y="12" width="11" height="2"/>
  <rect x="72" y="13" width="11" height="1"/>
  <rect x="71" y="14" width="12" height="2"/>
  <rect x="125" y="14" width="12" height="2"/>
  <rect x="70" y="16" width="13" height="1"/>
  <rect x="125" y="16" width="13" height="1"/>
  <rect x="70" y="17" width="14" height="1"/>
  <rect x="124" y="17" width="15" height="2"/>
  <rect x="69" y="18" width="15" height="2"/>
  <rect x="124" y="19" width="16" height="2"/>
  <rect x="68" y="20" width="16" height="3"/>
  <rect x="124" y="21" width="17" height="2"/>
  <rect x="67" y="23" width="17" height="2"/>
  <rect x="124" y="23" width="18" height="2"/>
  <rect x="66" y="25" width="19" height="2"/>
  <rect x="124" y="25" width="19" height="1"/>
  <rect x="123" y="26" width="20" height="1"/>
  <rect x="65" y="27" width="20" height="2"/>
  <rect x="123" y="27" width="21" height="2"/>
  <rect x="64" y="29" width="21" height="3"/>
  <rect x="123" y="29" width="22" height="3"/>
  <rect x="32" y="30" width="2" height="1"/>
  <rect x="31" y="31" width="3" height="1"/>
  <rect x="30" y="32" width="4" height="1"/>
  <rect x="63" y="32" width="23" height="3"/>
  <rect x="123" y="32" width="23" height="2"/>
  <rect x="29" y="33" width="5" height="1"/>
  <rect x="174" y="33" width="3" height="2"/>
  <rect x="28" y="34" width="5" height="1"/>
  <rect x="122" y="34" width="24" height="1"/>
  <rect x="27" y="35" width="7" height="1"/>
  <rect x="62" y="35" width="24" height="1"/>
  <rect x="122" y="35" width="25" height="3"/>
  <rect x="174" y="35" width="5" height="1"/>
  <rect x="26" y="36" width="7" height="1"/>
  <rect x="61" y="36" width="25" height="3"/>
  <rect x="174" y="36" width="6" height="1"/>
  <rect x="25" y="37" width="8" height="1"/>
  <rect x="175" y="37" width="6" height="1"/>
  <rect x="24" y="38" width="9" height="2"/>
  <rect x="122" y="38" width="26" height="2"/>
  <rect x="175" y="38" width="7" height="1"/>
  <rect x="61" y="39" width="26" height="1"/>
  <rect x="175" y="39" width="8" height="1"/>
  <rect x="23" y="40" width="10" height="1"/>
  <rect x="60" y="40" width="27" height="2"/>
  <rect x="121" y="40" width="27" height="1"/>
  <rect x="175" y="40" width="9" height="2"/>
  <rect x="22" y="41" width="11" height="1"/>
  <rect x="122" y="41" width="26" height="2"/>
  <rect x="21" y="42" width="12" height="2"/>
  <rect x="60" y="42" width="10" height="1"/>
  <rect x="79" y="42" width="8" height="1"/>
  <rect x="175" y="42" width="10" height="1"/>
  <rect x="60" y="43" width="6" height="1"/>
  <rect x="83" y="43" width="3" height="1"/>
  <rect x="122" y="43" width="7" height="1"/>
  <rect x="141" y="43" width="7" height="1"/>
  <rect x="176" y="43" width="10" height="2"/>
  <rect x="20" y="44" width="12" height="2"/>
  <rect x="60" y="44" width="3" height="1"/>
  <rect x="123" y="44" width="2" height="1"/>
  <rect x="145" y="44" width="3" height="1"/>
  <rect x="146" y="45" width="2" height="1"/>
  <rect x="176" y="45" width="11" height="1"/>
  <rect x="19" y="46" width="13" height="2"/>
  <rect x="176" y="46" width="12" height="1"/>
  <rect x="176" y="47" width="13" height="2"/>
  <rect x="18" y="48" width="14" height="1"/>
  <rect x="17" y="49" width="15" height="3"/>
  <rect x="176" y="49" width="14" height="1"/>
  <rect x="177" y="50" width="13" height="1"/>
  <rect x="177" y="51" width="14" height="2"/>
  <rect x="16" y="52" width="16" height="3"/>
  <rect x="73" y="53" width="9" height="1"/>
  <rect x="129" y="53" width="7" height="1"/>
  <rect x="177" y="53" width="15" height="2"/>
  <rect x="71" y="54" width="13" height="1"/>
  <rect x="127" y="54" width="12" height="1"/>
  <rect x="15" y="55" width="17" height="3"/>
  <rect x="69" y="55" width="17" height="1"/>
  <rect x="125" y="55" width="16" height="1"/>
  <rect x="177" y="55" width="16" height="2"/>
  <rect x="68" y="56" width="19" height="1"/>
  <rect x="124" y="56" width="18" height="1"/>
  <rect x="67" y="57" width="21" height="1"/>
  <rect x="122" y="57" width="22" height="1"/>
  <rect x="177" y="57" width="17" height="3"/>
  <rect x="14" y="58" width="18" height="2"/>
  <rect x="66" y="58" width="23" height="1"/>
  <rect x="121" y="58" width="23" height="1"/>
  <rect x="65" y="59" width="25" height="1"/>
  <rect x="121" y="59" width="25" height="1"/>
  <rect x="13" y="60" width="19" height="4"/>
  <rect x="64" y="60" width="27" height="1"/>
  <rect x="120" y="60" width="26" height="1"/>
  <rect x="177" y="60" width="18" height="4"/>
  <rect x="63" y="61" width="29" height="1"/>
  <rect x="119" y="61" width="28" height="1"/>
  <rect x="62" y="62" width="31" height="2"/>
  <rect x="118" y="62" width="30" height="1"/>
  <rect x="117" y="63" width="31" height="1"/>
  <rect x="12" y="64" width="19" height="1"/>
  <rect x="61" y="64" width="33" height="1"/>
  <rect x="117" y="64" width="32" height="1"/>
  <rect x="177" y="64" width="19" height="3"/>
  <rect x="12" y="65" width="18" height="1"/>
  <rect x="60" y="65" width="34" height="1"/>
  <rect x="116" y="65" width="34" height="2"/>
  <rect x="12" y="66" width="17" height="1"/>
  <rect x="60" y="66" width="35" height="2"/>
  <rect x="12" y="67" width="16" height="1"/>
  <rect x="115" y="67" width="36" height="2"/>
  <rect x="178" y="67" width="19" height="1"/>
  <rect x="12" y="68" width="14" height="1"/>
  <rect x="59" y="68" width="37" height="2"/>
  <rect x="179" y="68" width="18" height="1"/>
  <rect x="12" y="69" width="12" height="1"/>
  <rect x="114" y="69" width="38" height="2"/>
  <rect x="181" y="69" width="16" height="1"/>
  <rect x="11" y="70" width="11" height="1"/>
  <rect x="59" y="70" width="38" height="1"/>
  <rect x="182" y="70" width="15" height="1"/>
  <rect x="11" y="71" width="9" height="1"/>
  <rect x="58" y="71" width="39" height="2"/>
  <rect x="113" y="71" width="40" height="3"/>
  <rect x="184" y="71" width="13" height="1"/>
  <rect x="11" y="72" width="6" height="1"/>
  <rect x="186" y="72" width="12" height="1"/>
  <rect x="57" y="73" width="41" height="3"/>
  <rect x="189" y="73" width="9" height="1"/>
  <rect x="113" y="74" width="41" height="1"/>
  <rect x="191" y="74" width="7" height="1"/>
  <rect x="112" y="75" width="42" height="4"/>
  <rect x="195" y="75" width="2" height="1"/>
  <rect x="56" y="76" width="42" height="1"/>
  <rect x="56" y="77" width="43" height="4"/>
  <rect x="111" y="79" width="44" height="6"/>
  <rect x="24" y="80" width="5" height="1"/>
  <rect x="21" y="81" width="11" height="1"/>
  <rect x="56" y="81" width="44" height="2"/>
  <rect x="19" y="82" width="14" height="1"/>
  <rect x="180" y="82" width="9" height="1"/>
  <rect x="18" y="83" width="17" height="1"/>
  <rect x="55" y="83" width="45" height="19"/>
  <rect x="178" y="83" width="14" height="1"/>
  <rect x="16" y="84" width="20" height="1"/>
  <rect x="177" y="84" width="17" height="1"/>
  <rect x="15" y="85" width="22" height="1"/>
  <rect x="111" y="85" width="45" height="1"/>
  <rect x="175" y="85" width="20" height="1"/>
  <rect x="14" y="86" width="24" height="1"/>
  <rect x="110" y="86" width="46" height="12"/>
  <rect x="174" y="86" width="22" height="1"/>
  <rect x="13" y="87" width="25" height="1"/>
  <rect x="173" y="87" width="24" height="1"/>
  <rect x="12" y="88" width="27" height="1"/>
  <rect x="173" y="88" width="25" height="1"/>
  <rect x="11" y="89" width="29" height="2"/>
  <rect x="172" y="89" width="27" height="1"/>
  <rect x="172" y="90" width="28" height="1"/>
  <rect x="10" y="91" width="31" height="1"/>
  <rect x="171" y="91" width="30" height="1"/>
  <rect x="9" y="92" width="32" height="1"/>
  <rect x="170" y="92" width="32" height="2"/>
  <rect x="9" y="93" width="33" height="1"/>
  <rect x="8" y="94" width="34" height="1"/>
  <rect x="169" y="94" width="34" height="2"/>
  <rect x="8" y="95" width="35" height="1"/>
  <rect x="7" y="96" width="36" height="2"/>
  <rect x="169" y="96" width="35" height="1"/>
  <rect x="168" y="97" width="37" height="2"/>
  <rect x="6" y="98" width="38" height="1"/>
  <rect x="110" y="98" width="45" height="7"/>
  <rect x="5" y="99" width="39" height="2"/>
  <rect x="168" y="99" width="38" height="1"/>
  <rect x="167" y="100" width="39" height="1"/>
  <rect x="5" y="101" width="40" height="1"/>
  <rect x="167" y="101" width="40" height="2"/>
  <rect x="4" y="102" width="41" height="2"/>
  <rect x="55" y="102" width="44" height="1"/>
  <rect x="56" y="103" width="44" height="2"/>
  <rect x="166" y="103" width="42" height="3"/>
  <rect x="4" y="104" width="42" height="1"/>
  <rect x="3" y="105" width="43" height="2"/>
  <rect x="56" y="105" width="43" height="3"/>
  <rect x="111" y="105" width="44" height="1"/>
  <rect x="111" y="106" width="43" height="2"/>
  <rect x="165" y="106" width="44" height="4"/>
  <rect x="3" y="107" width="44" height="1"/>
  <rect x="2" y="108" width="45" height="3"/>
  <rect x="57" y="108" width="42" height="1"/>
  <rect x="112" y="108" width="42" height="1"/>
  <rect x="57" y="109" width="41" height="1"/>
  <rect x="112" y="109" width="41" height="2"/>
  <rect x="58" y="110" width="40" height="1"/>
  <rect x="164" y="110" width="45" height="1"/>
  <rect x="1" y="111" width="47" height="4"/>
  <rect x="58" y="111" width="39" height="1"/>
  <rect x="113" y="111" width="40" height="1"/>
  <rect x="164" y="111" width="46" height="3"/>
  <rect x="59" y="112" width="38" height="1"/>
  <rect x="113" y="112" width="39" height="1"/>
  <rect x="59" y="113" width="37" height="1"/>
  <rect x="114" y="113" width="38" height="1"/>
  <rect x="60" y="114" width="35" height="1"/>
  <rect x="115" y="114" width="36" height="1"/>
  <rect x="163" y="114" width="47" height="2"/>
  <rect x="1" y="115" width="48" height="8"/>
  <rect x="60" y="115" width="34" height="1"/>
  <rect x="115" y="115" width="35" height="1"/>
  <rect x="61" y="116" width="33" height="1"/>
  <rect x="116" y="116" width="34" height="1"/>
  <rect x="163" y="116" width="48" height="4"/>
  <rect x="62" y="117" width="30" height="1"/>
  <rect x="117" y="117" width="32" height="1"/>
  <rect x="63" y="118" width="28" height="1"/>
  <rect x="119" y="118" width="29" height="1"/>
  <rect x="64" y="119" width="26" height="1"/>
  <rect x="120" y="119" width="27" height="1"/>
  <rect x="65" y="120" width="23" height="1"/>
  <rect x="121" y="120" width="25" height="1"/>
  <rect x="162" y="120" width="49" height="11"/>
  <rect x="66" y="121" width="21" height="1"/>
  <rect x="123" y="121" width="22" height="1"/>
  <rect x="68" y="122" width="16" height="1"/>
  <rect x="125" y="122" width="18" height="1"/>
  <rect x="0" y="123" width="49" height="1"/>
  <rect x="71" y="123" width="10" height="1"/>
  <rect x="128" y="123" width="13" height="1"/>
  <rect x="1" y="124" width="49" height="1"/>
  <rect x="131" y="124" width="5" height="1"/>
  <rect x="0" y="125" width="50" height="1"/>
  <rect x="1" y="126" width="49" height="2"/>
  <rect x="1" y="128" width="48" height="1"/>
  <rect x="0" y="129" width="49" height="1"/>
  <rect x="1" y="130" width="48" height="5"/>
  <rect x="162" y="131" width="48" height="5"/>
  <rect x="1" y="135" width="47" height="2"/>
  <rect x="163" y="136" width="47" height="1"/>
  <rect x="2" y="137" width="46" height="1"/>
  <rect x="163" y="137" width="46" height="2"/>
  <rect x="2" y="138" width="45" height="2"/>
  <rect x="164" y="139" width="45" height="2"/>
  <rect x="3" y="140" width="43" height="2"/>
  <rect x="165" y="141" width="44" height="1"/>
  <rect x="3" y="142" width="42" height="1"/>
  <rect x="88" y="142" width="9" height="1"/>
  <rect x="124" y="142" width="12" height="1"/>
  <rect x="165" y="142" width="43" height="1"/>
  <rect x="4" y="143" width="40" height="1"/>
  <rect x="81" y="143" width="20" height="1"/>
  <rect x="124" y="143" width="16" height="1"/>
  <rect x="166" y="143" width="42" height="1"/>
  <rect x="5" y="144" width="39" height="1"/>
  <rect x="75" y="144" width="28" height="1"/>
  <rect x="124" y="144" width="20" height="1"/>
  <rect x="166" y="144" width="41" height="1"/>
  <rect x="5" y="145" width="38" height="1"/>
  <rect x="73" y="145" width="31" height="1"/>
  <rect x="125" y="145" width="21" height="1"/>
  <rect x="167" y="145" width="40" height="1"/>
  <rect x="6" y="146" width="36" height="1"/>
  <rect x="70" y="146" width="34" height="1"/>
  <rect x="127" y="146" width="22" height="1"/>
  <rect x="168" y="146" width="38" height="2"/>
  <rect x="7" y="147" width="34" height="1"/>
  <rect x="67" y="147" width="38" height="1"/>
  <rect x="128" y="147" width="23" height="1"/>
  <rect x="7" y="148" width="33" height="1"/>
  <rect x="64" y="148" width="42" height="1"/>
  <rect x="130" y="148" width="24" height="1"/>
  <rect x="169" y="148" width="36" height="1"/>
  <rect x="8" y="149" width="31" height="1"/>
  <rect x="61" y="149" width="45" height="1"/>
  <rect x="131" y="149" width="24" height="1"/>
  <rect x="170" y="149" width="34" height="1"/>
  <rect x="9" y="150" width="29" height="1"/>
  <rect x="59" y="150" width="47" height="1"/>
  <rect x="132" y="150" width="25" height="1"/>
  <rect x="171" y="150" width="32" height="1"/>
  <rect x="10" y="151" width="27" height="1"/>
  <rect x="57" y="151" width="49" height="1"/>
  <rect x="133" y="151" width="26" height="1"/>
  <rect x="172" y="151" width="30" height="1"/>
  <rect x="11" y="152" width="24" height="1"/>
  <rect x="55" y="152" width="51" height="1"/>
  <rect x="134" y="152" width="27" height="1"/>
  <rect x="173" y="152" width="28" height="1"/>
  <rect x="13" y="153" width="20" height="1"/>
  <rect x="53" y="153" width="53" height="1"/>
  <rect x="135" y="153" width="27" height="1"/>
  <rect x="175" y="153" width="25" height="1"/>
  <rect x="15" y="154" width="16" height="1"/>
  <rect x="51" y="154" width="55" height="1"/>
  <rect x="136" y="154" width="28" height="1"/>
  <rect x="176" y="154" width="23" height="1"/>
  <rect x="17" y="155" width="12" height="1"/>
  <rect x="49" y="155" width="57" height="1"/>
  <rect x="136" y="155" width="30" height="1"/>
  <rect x="179" y="155" width="18" height="1"/>
  <rect x="47" y="156" width="59" height="1"/>
  <rect x="137" y="156" width="30" height="1"/>
  <rect x="181" y="156" width="13" height="1"/>
  <rect x="45" y="157" width="60" height="1"/>
  <rect x="138" y="157" width="31" height="1"/>
  <rect x="186" y="157" width="3" height="1"/>
  <rect x="43" y="158" width="62" height="1"/>
  <rect x="138" y="158" width="32" height="1"/>
  <rect x="42" y="159" width="63" height="1"/>
  <rect x="139" y="159" width="33" height="1"/>
  <rect x="40" y="160" width="65" height="1"/>
  <rect x="139" y="160" width="34" height="1"/>
  <rect x="39" y="161" width="65" height="1"/>
  <rect x="140" y="161" width="34" height="1"/>
  <rect x="37" y="162" width="67" height="1"/>
  <rect x="140" y="162" width="36" height="1"/>
  <rect x="36" y="163" width="68" height="1"/>
  <rect x="140" y="163" width="37" height="1"/>
  <rect x="34" y="164" width="69" height="1"/>
  <rect x="141" y="164" width="37" height="1"/>
  <rect x="33" y="165" width="70" height="1"/>
  <rect x="141" y="165" width="38" height="1"/>
  <rect x="31" y="166" width="71" height="1"/>
  <rect x="141" y="166" width="40" height="1"/>
  <rect x="30" y="167" width="72" height="1"/>
  <rect x="142" y="167" width="40" height="1"/>
  <rect x="29" y="168" width="72" height="1"/>
  <rect x="142" y="168" width="41" height="1"/>
  <rect x="27" y="169" width="74" height="1"/>
  <rect x="142" y="169" width="42" height="1"/>
  <rect x="26" y="170" width="74" height="1"/>
  <rect x="142" y="170" width="43" height="1"/>
  <rect x="25" y="171" width="74" height="1"/>
  <rect x="142" y="171" width="44" height="1"/>
  <rect x="24" y="172" width="75" height="1"/>
  <rect x="142" y="172" width="45" height="1"/>
  <rect x="22" y="173" width="76" height="1"/>
  <rect x="142" y="173" width="46" height="1"/>
  <rect x="21" y="174" width="77" height="1"/>
  <rect x="142" y="174" width="47" height="1"/>
  <rect x="20" y="175" width="77" height="1"/>
  <rect x="142" y="175" width="48" height="1"/>
  <rect x="19" y="176" width="78" height="1"/>
  <rect x="142" y="176" width="49" height="1"/>
  <rect x="18" y="177" width="78" height="2"/>
  <rect x="142" y="177" width="50" height="1"/>
  <rect x="142" y="178" width="51" height="1"/>
  <rect x="17" y="179" width="78" height="1"/>
  <rect x="142" y="179" width="52" height="1"/>
  <rect x="16" y="180" width="78" height="1"/>
  <rect x="142" y="180" width="53" height="2"/>
  <rect x="15" y="181" width="79" height="1"/>
  <rect x="14" y="182" width="79" height="2"/>
  <rect x="142" y="182" width="54" height="1"/>
  <rect x="142" y="183" width="55" height="1"/>
  <rect x="13" y="184" width="79" height="1"/>
  <rect x="142" y="184" width="56" height="1"/>
  <rect x="12" y="185" width="80" height="1"/>
  <rect x="141" y="185" width="57" height="1"/>
  <rect x="12" y="186" width="79" height="1"/>
  <rect x="141" y="186" width="58" height="1"/>
  <rect x="11" y="187" width="80" height="1"/>
  <rect x="141" y="187" width="59" height="2"/>
  <rect x="11" y="188" width="79" height="1"/>
  <rect x="10" y="189" width="80" height="3"/>
  <rect x="141" y="189" width="60" height="1"/>
  <rect x="141" y="190" width="61" height="1"/>
  <rect x="140" y="191" width="62" height="1"/>
  <rect x="9" y="192" width="80" height="3"/>
  <rect x="140" y="192" width="63" height="1"/>
  <rect x="140" y="193" width="64" height="2"/>
  <rect x="8" y="195" width="81" height="5"/>
  <rect x="139" y="195" width="66" height="2"/>
  <rect x="138" y="197" width="68" height="2"/>
  <rect x="138" y="199" width="69" height="1"/>
  <rect x="7" y="200" width="82" height="1"/>
  <rect x="137" y="200" width="70" height="1"/>
  <rect x="7" y="201" width="83" height="2"/>
  <rect x="136" y="201" width="71" height="2"/>
  <rect x="7" y="203" width="84" height="2"/>
  <rect x="135" y="203" width="73" height="2"/>
  <rect x="6" y="205" width="86" height="1"/>
  <rect x="134" y="205" width="74" height="1"/>
  <rect x="6" y="206" width="87" height="1"/>
  <rect x="133" y="206" width="76" height="1"/>
  <rect x="6" y="207" width="88" height="1"/>
  <rect x="132" y="207" width="77" height="1"/>
  <rect x="6" y="208" width="89" height="1"/>
  <rect x="131" y="208" width="78" height="1"/>
  <rect x="6" y="209" width="91" height="1"/>
  <rect x="129" y="209" width="80" height="1"/>
  <rect x="6" y="210" width="92" height="1"/>
  <rect x="128" y="210" width="81" height="1"/>
  <rect x="6" y="211" width="94" height="1"/>
  <rect x="126" y="211" width="83" height="1"/>
  <rect x="6" y="212" width="96" height="1"/>
  <rect x="124" y="212" width="85" height="1"/>
  <rect x="6" y="213" width="97" height="2"/>
  <rect x="123" y="213" width="86" height="5"/>
  <rect x="7" y="215" width="96" height="1"/>
  <rect x="7" y="216" width="95" height="2"/>
  <rect x="7" y="218" width="94" height="2"/>
  <rect x="124" y="218" width="85" height="2"/>
  <rect x="7" y="220" width="93" height="2"/>
  <rect x="125" y="220" width="83" height="2"/>
  <rect x="7" y="222" width="92" height="1"/>
  <rect x="126" y="222" width="82" height="1"/>
  <rect x="8" y="223" width="90" height="1"/>
  <rect x="127" y="223" width="81" height="1"/>
  <rect x="8" y="224" width="89" height="1"/>
  <rect x="128" y="224" width="80" height="1"/>
  <rect x="8" y="225" width="88" height="1"/>
  <rect x="129" y="225" width="78" height="2"/>
  <rect x="9" y="226" width="86" height="1"/>
  <rect x="9" y="227" width="85" height="1"/>
  <rect x="130" y="227" width="76" height="1"/>
  <rect x="10" y="228" width="83" height="1"/>
  <rect x="131" y="228" width="75" height="1"/>
  <rect x="10" y="229" width="81" height="1"/>
  <rect x="133" y="229" width="73" height="1"/>
  <rect x="11" y="230" width="79" height="1"/>
  <rect x="134" y="230" width="71" height="1"/>
  <rect x="11" y="231" width="78" height="1"/>
  <rect x="135" y="231" width="69" height="1"/>
  <rect x="12" y="232" width="75" height="1"/>
  <rect x="136" y="232" width="68" height="1"/>
  <rect x="12" y="233" width="73" height="1"/>
  <rect x="137" y="233" width="66" height="1"/>
  <rect x="13" y="234" width="71" height="1"/>
  <rect x="139" y="234" width="64" height="1"/>
  <rect x="14" y="235" width="68" height="1"/>
  <rect x="140" y="235" width="62" height="1"/>
  <rect x="14" y="236" width="67" height="1"/>
  <rect x="141" y="236" width="60" height="1"/>
  <rect x="15" y="237" width="64" height="1"/>
  <rect x="142" y="237" width="58" height="1"/>
  <rect x="16" y="238" width="62" height="1"/>
  <rect x="144" y="238" width="55" height="1"/>
  <rect x="17" y="239" width="59" height="1"/>
  <rect x="145" y="239" width="53" height="1"/>
  <rect x="19" y="240" width="55" height="1"/>
  <rect x="147" y="240" width="50" height="1"/>
  <rect x="19" y="241" width="53" height="1"/>
  <rect x="148" y="241" width="48" height="1"/>
  <rect x="21" y="242" width="48" height="1"/>
  <rect x="150" y="242" width="45" height="1"/>
  <rect x="23" y="243" width="44" height="1"/>
  <rect x="152" y="243" width="41" height="1"/>
  <rect x="24" y="244" width="40" height="1"/>
  <rect x="153" y="244" width="39" height="1"/>
  <rect x="26" y="245" width="35" height="1"/>
  <rect x="155" y="245" width="35" height="1"/>
  <rect x="27" y="246" width="32" height="1"/>
  <rect x="157" y="246" width="31" height="1"/>
  <rect x="29" y="247" width="27" height="1"/>
  <rect x="160" y="247" width="26" height="1"/>
  <rect x="32" y="248" width="20" height="1"/>
  <rect x="163" y="248" width="20" height="1"/>
  <rect x="37" y="249" width="9" height="1"/>
  <rect x="168" y="249" width="11" height="1"/>
  </g>
</svg>