<svg xmlns="http://www.w3.org/2000/svg" viewBox="0 0 703 282" width="703" height="282">
  <g fill="#8c50cf">
  <rect x="95" y="16" width="1" height="1"/>
  <rect x="94" y="17" width="3" height="2"/>
  <rect x="93" y="19" width="4" height="1"/>
  <rect x="92" y="20" width="5" height="2"/>
  <rect x="142" y="20" width="3" height="1"/>
  <rect x="141" y="21" width="5" height="1"/>
  <rect x="91" y="22" width="7" height="1"/>
  <rect x="141" y="22" width="6" height="2"/>
  <rect x="90" y="23" width="7" height="2"/>
  <rect x="141" y="24" width="7" height="1"/>
  <rect x="89" y="25" width="9" height="2"/>
  <rect x="141" y="25" width="8" height="2"/>
  <rect x="88" y="27" width="10" height="2"/>
  <rect x="140" y="27" width="10" height="1"/>
  <rect x="140" y="28" width="11" height="2"/>
  <rect x="87" y="29" width="11" height="1"/>
  <rect x="86" y="30" width="12" height="2"/>
  <rect x="140" y="30" width="12" height="2"/>
  <rect x="85" y="32" width="13" height="1"/>
  <rect x="140" y="32" width="13" height="1"/>
  <rect x="85" y="33" width="14" height="1"/>
  <rect x="139" y="33" width="15" height="2"/>
  <rect x="84" y="34" width="15" height="2"/>
  <rect x="139" y="35" width="16" height="2"/>
  <rect x="83" y="36" width="16" height="3"/>
  <rect x="139" y="37" width="17" height="2"/>
  <rect x="82" y="39" width="17" height="2"/>
  <rect x="139" y="39" width="18" height="2"/>
  <rect x="81" y="41" width="19" height="2"/>
  <rect x="139" y="41" width="19" height="1"/>
  <rect x="138" y="42" width="20" height="1"/>
  <rect x="80" y="43" width="20" height="2"/>
  <rect x="138" y="43" width="21" height="2"/>
  <rect x="79" y="45" width="21" height="3"/>
  <rect x="138" y="45" width="22" height="3"/>
  <rect x="47" y="46" width="2" height="1"/>
  <rect x="46" y="47" width="3" height="1"/>
  <rect x="45" y="48" width="4" height="1"/>
  <rect x="78" y="48" width="23" height="3"/>
  <rect x="138" y="48" width="23" height="2"/>
  <rect x="44" y="49" width="5" height="1"/>
  <rect x="189" y="49" width="3" height="2"/>
  <rect x="43" y="50" width="5" height="1"/>
  <rect x="137" y="50" width="24" height="1"/>
  <rect x="42" y="51" width="7" height="1"/>
  <rect x="77" y="51" width="24" height="1"/>
  <rect x="137" y="51" width="25" height="3"/>
  <rect x="189" y="51" width="5" height="1"/>
  <rect x="41" y="52" width="7" height="1"/>
  <rect x="76" y="52" width="25" height="3"/>
  <rect x="189" y="52" width="6" height="1"/>
  <rect x="40" y="53" width="8" height="1"/>
  <rect x="190" y="53" width="6" height="1"/>
  <rect x="39" y="54" width="9" height="2"/>
  <rect x="137" y="54" width="26" height="2"/>
  <rect x="190" y="54" width="7" height="1"/>
  <rect x="76" y="55" width="26" height="1"/>
  <rect x="190" y="55" width="8" height="1"/>
  <rect x="38" y="56" width="10" height="1"/>
  <rect x="75" y="56" width="27" height="2"/>
  <rect x="136" y="56" width="27" height="1"/>
  <rect x="190" y="56" width="9" height="2"/>
  <rect x="37" y="57" width="11" height="1"/>
  <rect x="137" y="57" width="26" height="2"/>
  <rect x="36" y="58" width="12" height="2"/>
  <rect x="75" y="58" width="10" height="1"/>
  <rect x="94" y="58" width="8" height="1"/>
  <rect x="190" y="58" width="10" height="1"/>
  <rect x="75" y="59" width="6" height="1"/>
  <rect x="98" y="59" width="3" height="1"/>
  <rect x="137" y="59" width="7" height="1"/>
  <rect x="156" y="59" width="7" height="1"/>
  <rect x="191" y="59" width="10" height="2"/>
  <rect x="35" y="60" width="12" height="2"/>
  <rect x="75" y="60" width="3" height="1"/>
  <rect x="138" y="60" width="2" height="1"/>
  <rect x="160" y="60" width="3" height="1"/>
  <rect x="161" y="61" width="2" height="1"/>
  <rect x="191" y="61" width="11" height="1"/>
  <rect x="34" y="62" width="13" height="2"/>
  <rect x="191" y="62" width="12" height="1"/>
  <rect x="191" y="63" width="13" height="2"/>
  <rect x="33" y="64" width="14" height="1"/>
  <rect x="32" y="65" width="15" height="3"/>
  <rect x="191" y="65" width="14" height="1"/>
  <rect x="192" y="66" width="13" height="1"/>
  <rect x="192" y="67" width="14" height="2"/>
  <rect x="31" y="68" width="16" height="3"/>
  <rect x="88" y="69" width="9" height="1"/>
  <rect x="144" y="69" width="7" height="1"/>
  <rect x="192" y="69" width="15" height="2"/>
  <rect x="86" y="70" width="13" height="1"/>
  <rect x="142" y="70" width="12" height="1"/>
  <rect x="30" y="71" width="17" height="3"/>
  <rect x="84" y="71" width="17" height="1"/>
  <rect x="140" y="71" width="16" height="1"/>
  <rect x="192" y="71" width="16" height="2"/>
  <rect x="83" y="72" width="19" height="1"/>
  <rect x="139" y="72" width="18" height="1"/>
  <rect x="82" y="73" width="21" height="1"/>
  <rect x="137" y="73" width="22" height="1"/>
  <rect x="192" y="73" width="17" height="3"/>
  <rect x="29" y="74" width="18" height="2"/>
  <rect x="81" y="74" width="23" height="1"/>
  <rect x="136" y="74" width="23" height="1"/>
  <rect x="80" y="75" width="25" height="1"/>
  <rect x="136" y="75" width="25" height="1"/>
  <rect x="28" y="76" width="19" height="4"/>
  <rect x="79" y="76" width="27" height="1"/>
  <rect x="135" y="76" width="26" height="1"/>
  <rect x="192" y="76" width="18" height="4"/>
  <rect x="78" y="77" width="29" height="1"/>
  <rect x="134" y="77" width="28" height="1"/>
  <rect x="77" y="78" width="31" height="2"/>
  <rect x="133" y="78" width="30" height="1"/>
  <rect x="132" y="79" width="31" height="1"/>
  <rect x="27" y="80" width="19" height="1"/>
  <rect x="76" y="80" width="33" height="1"/>
  <rect x="132" y="80" width="32" height="1"/>
  <rect x="192" y="80" width="19" height="3"/>
  <rect x="27" y="81" width="18" height="1"/>
  <rect x="75" y="81" width="34" height="1"/>
  <rect x="131" y="81" width="34" height="2"/>
  <rect x="27" y="82" width="17" height="1"/>
  <rect x="75" y="82" width="35" height="2"/>
  <rect x="27" y="83" width="16" height="1"/>
  <rect x="130" y="83" width="36" height="2"/>
  <rect x="193" y="83" width="19" height="1"/>
  <rect x="27" y="84" width="14" height="1"/>
  <rect x="74" y="84" width="37" height="2"/>
  <rect x="194" y="84" width="18" height="1"/>
  <rect x="27" y="85" width="12" height="1"/>
  <rect x="129" y="85" width="38" height="2"/>
  <rect x="196" y="85" width="16" height="1"/>
  <rect x="26" y="86" width="11" height="1"/>
  <rect x="74" y="86" width="38" height="1"/>
  <rect x="197" y="86" width="15" height="1"/>
  <rect x="26" y="87" width="9" height="1"/>
  <rect x="73" y="87" width="39" height="2"/>
  <rect x="128" y="87" width="40" height="3"/>
  <rect x="199" y="87" width="13" height="1"/>
  <rect x="26" y="88" width="6" height="1"/>
  <rect x="201" y="88" width="12" height="1"/>
  <rect x="72" y="89" width="41" height="3"/>
  <rect x="204" y="89" width="9" height="1"/>
  <rect x="128" y="90" width="41" height="1"/>
  <rect x="206" y="90" width="7" height="1"/>
  <rect x="127" y="91" width="42" height="4"/>
  <rect x="210" y="91" width="2" height="1"/>
  <rect x="71" y="92" width="42" height="1"/>
  <rect x="71" y="93" width="43" height="4"/>
  <rect x="126" y="95" width="44" height="6"/>
  <rect x="39" y="96" width="5" height="1"/>
  <rect x="36" y="97" width="11" height="1"/>
  <rect x="71" y="97" width="44" height="2"/>
  <rect x="34" y="98" width="14" height="1"/>
  <rect x="195" y="98" width="9" height="1"/>
  <rect x="33" y="99" width="17" height="1"/>
  <rect x="70" y="99" width="45" height="19"/>
  <rect x="193" y="99" width="14" height="1"/>
  <rect x="31" y="100" width="20" height="1"/>
  <rect x="192" y="100" width="17" height="1"/>
  <rect x="30" y="101" width="22" height="1"/>
  <rect x="126" y="101" width="45" height="1"/>
  <rect x="190" y="101" width="20" height="1"/>
  <rect x="29" y="102" width="24" height="1"/>
  <rect x="125" y="102" width="46" height="12"/>
  <rect x="189" y="102" width="22" height="1"/>
  <rect x="28" y="103" width="25" height="1"/>
  <rect x="188" y="103" width="24" height="1"/>
  <rect x="27" y="104" width="27" height="1"/>
  <rect x="188" y="104" width="25" height="1"/>
  <rect x="26" y="105" width="29" height="2"/>
  <rect x="187" y="105" width="27" height="1"/>
  <rect x="187" y="106" width="28" height="1"/>
  <rect x="25" y="107" width="31" height="1"/>
  <rect x="186" y="107" width="30" height="1"/>
  <rect x="24" y="108" width="32" height="1"/>
  <rect x="185" y="108" width="32" height="2"/>
  <rect x="277" y="108" width="10" height="31"/>
  <rect x="24" y="109" width="33" height="1"/>
  <rect x="23" y="110" width="34" height="1"/>
  <rect x="184" y="110" width="34" height="2"/>
  <rect x="532" y="110" width="28" height="1"/>
  <rect x="23" y="111" width="35" height="1"/>
  <rect x="531" y="111" width="29" height="8"/>
  <rect x="22" y="112" width="36" height="2"/>
  <rect x="184" y="112" width="35" height="1"/>
  <rect x="183" y="113" width="37" height="2"/>
  <rect x="21" y="114" width="38" height="1"/>
  <rect x="125" y="114" width="45" height="7"/>
  <rect x="20" y="115" width="39" height="2"/>
  <rect x="183" y="115" width="38" height="1"/>
  <rect x="182" y="116" width="39" height="1"/>
  <rect x="20" y="117" width="40" height="1"/>
  <rect x="182" y="117" width="40" height="2"/>
  <rect x="19" y="118" width="41" height="2"/>
  <rect x="70" y="118" width="44" height="1"/>
  <rect x="71" y="119" width="44" height="2"/>
  <rect x="181" y="119" width="42" height="3"/>
  <rect x="532" y="119" width="28" height="1"/>
  <rect x="19" y="120" width="42" height="1"/>
  <rect x="550" y="120" width="10" height="51"/>
  <rect x="18" y="121" width="43" height="2"/>
  <rect x="71" y="121" width="43" height="3"/>
  <rect x="126" y="121" width="44" height="1"/>
  <rect x="126" y="122" width="43" height="2"/>
  <rect x="180" y="122" width="44" height="4"/>
  <rect x="18" y="123" width="44" height="1"/>
  <rect x="17" y="124" width="45" height="3"/>
  <rect x="72" y="124" width="42" height="1"/>
  <rect x="127" y="124" width="42" height="1"/>
  <rect x="72" y="125" width="41" height="1"/>
  <rect x="127" y="125" width="41" height="2"/>
  <rect x="73" y="126" width="40" height="1"/>
  <rect x="179" y="126" width="45" height="1"/>
  <rect x="16" y="127" width="47" height="4"/>
  <rect x="73" y="127" width="39" height="1"/>
  <rect x="128" y="127" width="40" height="1"/>
  <rect x="179" y="127" width="46" height="3"/>
  <rect x="74" y="128" width="38" height="1"/>
  <rect x="128" y="128" width="39" height="1"/>
  <rect x="74" y="129" width="37" height="1"/>
  <rect x="129" y="129" width="38" height="1"/>
  <rect x="75" y="130" width="35" height="1"/>
  <rect x="130" y="130" width="36" height="1"/>
  <rect x="178" y="130" width="47" height="2"/>
  <rect x="16" y="131" width="48" height="8"/>
  <rect x="75" y="131" width="34" height="1"/>
  <rect x="130" y="131" width="35" height="1"/>
  <rect x="76" y="132" width="33" height="1"/>
  <rect x="131" y="132" width="34" height="1"/>
  <rect x="178" y="132" width="48" height="4"/>
  <rect x="77" y="133" width="30" height="1"/>
  <rect x="132" y="133" width="32" height="1"/>
  <rect x="78" y="134" width="28" height="1"/>
  <rect x="134" y="134" width="29" height="1"/>
  <rect x="79" y="135" width="26" height="1"/>
  <rect x="135" y="135" width="27" height="1"/>
  <rect x="294" y="135" width="14" height="1"/>
  <rect x="339" y="135" width="19" height="1"/>
  <rect x="383" y="135" width="2" height="1"/>
  <rect x="396" y="135" width="4" height="1"/>
  <rect x="411" y="135" width="13" height="1"/>
  <rect x="449" y="135" width="13" height="1"/>
  <rect x="503" y="135" width="14" height="1"/>
  <rect x="596" y="135" width="19" height="1"/>
  <rect x="638" y="135" width="3" height="1"/>
  <rect x="80" y="136" width="23" height="1"/>
  <rect x="136" y="136" width="25" height="1"/>
  <rect x="177" y="136" width="49" height="11"/>
  <rect x="292" y="136" width="18" height="1"/>
  <rect x="334" y="136" width="26" height="1"/>
  <rect x="382" y="136" width="19" height="2"/>
  <rect x="408" y="136" width="16" height="1"/>
  <rect x="445" y="136" width="19" height="1"/>
  <rect x="497" y="136" width="26" height="1"/>
  <rect x="590" y="136" width="27" height="1"/>
  <rect x="633" y="136" width="11" height="1"/>
  <rect x="677" y="136" width="10" height="3"/>
  <rect x="81" y="137" width="21" height="1"/>
  <rect x="138" y="137" width="22" height="1"/>
  <rect x="289" y="137" width="23" height="1"/>
  <rect x="333" y="137" width="30" height="1"/>
  <rect x="405" y="137" width="19" height="1"/>
  <rect x="443" y="137" width="23" height="1"/>
  <rect x="496" y="137" width="28" height="1"/>
  <rect x="590" y="137" width="29" height="1"/>
  <rect x="634" y="137" width="10" height="2"/>
  <rect x="83" y="138" width="16" height="1"/>
  <rect x="140" y="138" width="18" height="1"/>
  <rect x="288" y="138" width="25" height="1"/>
  <rect x="333" y="138" width="31" height="1"/>
  <rect x="383" y="138" width="18" height="2"/>
  <rect x="404" y="138" width="20" height="1"/>
  <rect x="442" y="138" width="25" height="1"/>
  <rect x="494" y="138" width="30" height="1"/>
  <rect x="590" y="138" width="31" height="1"/>
  <rect x="15" y="139" width="49" height="1"/>
  <rect x="86" y="139" width="10" height="1"/>
  <rect x="143" y="139" width="13" height="1"/>
  <rect x="277" y="139" width="37" height="2"/>
  <rect x="333" y="139" width="32" height="1"/>
  <rect x="402" y="139" width="22" height="1"/>
  <rect x="440" y="139" width="29" height="1"/>
  <rect x="492" y="139" width="31" height="1"/>
  <rect x="590" y="139" width="32" height="1"/>
  <rect x="634" y="139" width="11" height="4"/>
  <rect x="676" y="139" width="11" height="2"/>
  <rect x="16" y="140" width="49" height="1"/>
  <rect x="146" y="140" width="5" height="1"/>
  <rect x="333" y="140" width="33" height="1"/>
  <rect x="383" y="140" width="41" height="5"/>
  <rect x="439" y="140" width="31" height="1"/>
  <rect x="491" y="140" width="32" height="1"/>
  <rect x="590" y="140" width="33" height="1"/>
  <rect x="15" y="141" width="50" height="1"/>
  <rect x="277" y="141" width="38" height="1"/>
  <rect x="333" y="141" width="34" height="1"/>
  <rect x="438" y="141" width="33" height="1"/>
  <rect x="490" y="141" width="33" height="2"/>
  <rect x="590" y="141" width="34" height="1"/>
  <rect x="676" y="141" width="10" height="4"/>
  <rect x="16" y="142" width="49" height="2"/>
  <rect x="277" y="142" width="39" height="2"/>
  <rect x="333" y="142" width="35" height="3"/>
  <rect x="437" y="142" width="34" height="1"/>
  <rect x="590" y="142" width="35" height="3"/>
  <rect x="436" y="143" width="36" height="1"/>
  <rect x="489" y="143" width="34" height="1"/>
  <rect x="635" y="143" width="10" height="2"/>
  <rect x="16" y="144" width="48" height="1"/>
  <rect x="277" y="144" width="21" height="1"/>
  <rect x="301" y="144" width="16" height="1"/>
  <rect x="436" y="144" width="17" height="1"/>
  <rect x="457" y="144" width="15" height="1"/>
  <rect x="488" y="144" width="35" height="1"/>
  <rect x="15" y="145" width="49" height="1"/>
  <rect x="277" y="145" width="17" height="1"/>
  <rect x="304" y="145" width="13" height="1"/>
  <rect x="355" y="145" width="14" height="1"/>
  <rect x="392" y="145" width="32" height="1"/>
  <rect x="435" y="145" width="14" height="1"/>
  <rect x="460" y="145" width="13" height="1"/>
  <rect x="488" y="145" width="15" height="1"/>
  <rect x="521" y="145" width="1" height="1"/>
  <rect x="612" y="145" width="14" height="1"/>
  <rect x="635" y="145" width="11" height="3"/>
  <rect x="675" y="145" width="11" height="1"/>
  <rect x="16" y="146" width="48" height="5"/>
  <rect x="277" y="146" width="14" height="1"/>
  <rect x="305" y="146" width="12" height="1"/>
  <rect x="357" y="146" width="12" height="1"/>
  <rect x="392" y="146" width="19" height="1"/>
  <rect x="420" y="146" width="4" height="1"/>
  <rect x="435" y="146" width="12" height="1"/>
  <rect x="462" y="146" width="11" height="1"/>
  <rect x="488" y="146" width="12" height="1"/>
  <rect x="614" y="146" width="12" height="2"/>
  <rect x="675" y="146" width="10" height="5"/>
  <rect x="177" y="147" width="48" height="5"/>
  <rect x="277" y="147" width="12" height="1"/>
  <rect x="306" y="147" width="11" height="1"/>
  <rect x="358" y="147" width="11" height="2"/>
  <rect x="392" y="147" width="16" height="1"/>
  <rect x="435" y="147" width="11" height="2"/>
  <rect x="462" y="147" width="12" height="1"/>
  <rect x="488" y="147" width="11" height="1"/>
  <rect x="277" y="148" width="10" height="2"/>
  <rect x="307" y="148" width="11" height="24"/>
  <rect x="392" y="148" width="14" height="1"/>
  <rect x="463" y="148" width="11" height="2"/>
  <rect x="487" y="148" width="12" height="1"/>
  <rect x="615" y="148" width="11" height="6"/>
  <rect x="636" y="148" width="10" height="2"/>
  <rect x="656" y="148" width="10" height="2"/>
  <rect x="359" y="149" width="10" height="6"/>
  <rect x="392" y="149" width="12" height="1"/>
  <rect x="434" y="149" width="12" height="1"/>
  <rect x="487" y="149" width="11" height="22"/>
  <rect x="277" y="150" width="11" height="6"/>
  <rect x="392" y="150" width="11" height="1"/>
  <rect x="434" y="150" width="11" height="6"/>
  <rect x="464" y="150" width="10" height="6"/>
  <rect x="636" y="150" width="11" height="2"/>
  <rect x="655" y="150" width="11" height="2"/>
  <rect x="16" y="151" width="47" height="2"/>
  <rect x="392" y="151" width="10" height="7"/>
  <rect x="674" y="151" width="11" height="1"/>
  <rect x="178" y="152" width="47" height="1"/>
  <rect x="637" y="152" width="10" height="3"/>
  <rect x="655" y="152" width="12" height="1"/>
  <rect x="674" y="152" width="10" height="5"/>
  <rect x="17" y="153" width="46" height="1"/>
  <rect x="178" y="153" width="46" height="2"/>
  <rect x="654" y="153" width="13" height="2"/>
  <rect x="17" y="154" width="45" height="2"/>
  <rect x="616" y="154" width="10" height="1"/>
  <rect x="179" y="155" width="45" height="2"/>
  <rect x="342" y="155" width="27" height="1"/>
  <rect x="598" y="155" width="28" height="1"/>
  <rect x="637" y="155" width="11" height="3"/>
  <rect x="654" y="155" width="14" height="1"/>
  <rect x="18" y="156" width="43" height="2"/>
  <rect x="277" y="156" width="10" height="15"/>
  <rect x="337" y="156" width="32" height="1"/>
  <rect x="434" y="156" width="40" height="10"/>
  <rect x="594" y="156" width="32" height="1"/>
  <rect x="653" y="156" width="15" height="3"/>
  <rect x="180" y="157" width="44" height="1"/>
  <rect x="335" y="157" width="34" height="1"/>
  <rect x="591" y="157" width="35" height="1"/>
  <rect x="674" y="157" width="9" height="2"/>
  <rect x="18" y="158" width="42" height="1"/>
  <rect x="103" y="158" width="9" height="1"/>
  <rect x="139" y="158" width="12" height="1"/>
  <rect x="180" y="158" width="43" height="1"/>
  <rect x="333" y="158" width="36" height="1"/>
  <rect x="392" y="158" width="11" height="5"/>
  <rect x="590" y="158" width="36" height="1"/>
  <rect x="638" y="158" width="10" height="5"/>
  <rect x="19" y="159" width="40" height="1"/>
  <rect x="96" y="159" width="20" height="1"/>
  <rect x="139" y="159" width="16" height="1"/>
  <rect x="181" y="159" width="42" height="1"/>
  <rect x="332" y="159" width="37" height="1"/>
  <rect x="589" y="159" width="37" height="1"/>
  <rect x="652" y="159" width="17" height="4"/>
  <rect x="673" y="159" width="10" height="3"/>
  <rect x="20" y="160" width="39" height="1"/>
  <rect x="90" y="160" width="28" height="1"/>
  <rect x="139" y="160" width="20" height="1"/>
  <rect x="181" y="160" width="41" height="1"/>
  <rect x="331" y="160" width="38" height="2"/>
  <rect x="588" y="160" width="38" height="1"/>
  <rect x="20" y="161" width="38" height="1"/>
  <rect x="88" y="161" width="31" height="1"/>
  <rect x="140" y="161" width="21" height="1"/>
  <rect x="182" y="161" width="40" height="1"/>
  <rect x="587" y="161" width="39" height="2"/>
  <rect x="21" y="162" width="36" height="1"/>
  <rect x="85" y="162" width="34" height="1"/>
  <rect x="142" y="162" width="22" height="1"/>
  <rect x="183" y="162" width="38" height="2"/>
  <rect x="330" y="162" width="39" height="3"/>
  <rect x="673" y="162" width="9" height="4"/>
  <rect x="22" y="163" width="34" height="1"/>
  <rect x="82" y="163" width="38" height="1"/>
  <rect x="143" y="163" width="23" height="1"/>
  <rect x="392" y="163" width="10" height="3"/>
  <rect x="586" y="163" width="40" height="2"/>
  <rect x="639" y="163" width="10" height="5"/>
  <rect x="651" y="163" width="19" height="1"/>
  <rect x="22" y="164" width="33" height="1"/>
  <rect x="79" y="164" width="42" height="1"/>
  <rect x="145" y="164" width="24" height="1"/>
  <rect x="184" y="164" width="36" height="1"/>
  <rect x="650" y="164" width="10" height="2"/>
  <rect x="661" y="164" width="9" height="2"/>
  <rect x="23" y="165" width="31" height="1"/>
  <rect x="76" y="165" width="45" height="1"/>
  <rect x="146" y="165" width="24" height="1"/>
  <rect x="185" y="165" width="34" height="1"/>
  <rect x="329" y="165" width="13" height="1"/>
  <rect x="358" y="165" width="11" height="8"/>
  <rect x="586" y="165" width="12" height="1"/>
  <rect x="615" y="165" width="11" height="9"/>
  <rect x="671" y="165" width="1" height="1"/>
  <rect x="24" y="166" width="29" height="1"/>
  <rect x="74" y="166" width="47" height="1"/>
  <rect x="147" y="166" width="25" height="1"/>
  <rect x="186" y="166" width="32" height="1"/>
  <rect x="329" y="166" width="12" height="1"/>
  <rect x="392" y="166" width="11" height="10"/>
  <rect x="434" y="166" width="11" height="5"/>
  <rect x="586" y="166" width="11" height="7"/>
  <rect x="650" y="166" width="9" height="3"/>
  <rect x="661" y="166" width="21" height="1"/>
  <rect x="25" y="167" width="27" height="1"/>
  <rect x="72" y="167" width="49" height="1"/>
  <rect x="148" y="167" width="26" height="1"/>
  <rect x="187" y="167" width="30" height="1"/>
  <rect x="329" y="167" width="11" height="8"/>
  <rect x="660" y="167" width="22" height="1"/>
  <rect x="26" y="168" width="24" height="1"/>
  <rect x="70" y="168" width="51" height="1"/>
  <rect x="149" y="168" width="27" height="1"/>
  <rect x="188" y="168" width="28" height="1"/>
  <rect x="640" y="168" width="9" height="1"/>
  <rect x="662" y="168" width="9" height="3"/>
  <rect x="672" y="168" width="10" height="1"/>
  <rect x="28" y="169" width="20" height="1"/>
  <rect x="68" y="169" width="53" height="1"/>
  <rect x="150" y="169" width="27" height="1"/>
  <rect x="190" y="169" width="25" height="1"/>
  <rect x="640" y="169" width="19" height="1"/>
  <rect x="672" y="169" width="9" height="2"/>
  <rect x="30" y="170" width="16" height="1"/>
  <rect x="66" y="170" width="55" height="1"/>
  <rect x="151" y="170" width="28" height="1"/>
  <rect x="191" y="170" width="23" height="1"/>
  <rect x="640" y="170" width="18" height="4"/>
  <rect x="32" y="171" width="12" height="1"/>
  <rect x="64" y="171" width="57" height="1"/>
  <rect x="151" y="171" width="30" height="1"/>
  <rect x="194" y="171" width="18" height="1"/>
  <rect x="277" y="171" width="11" height="5"/>
  <rect x="435" y="171" width="11" height="2"/>
  <rect x="487" y="171" width="12" height="2"/>
  <rect x="550" y="171" width="11" height="5"/>
  <rect x="663" y="171" width="18" height="3"/>
  <rect x="62" y="172" width="59" height="1"/>
  <rect x="152" y="172" width="30" height="1"/>
  <rect x="196" y="172" width="13" height="1"/>
  <rect x="306" y="172" width="12" height="2"/>
  <rect x="60" y="173" width="60" height="1"/>
  <rect x="153" y="173" width="31" height="1"/>
  <rect x="201" y="173" width="3" height="1"/>
  <rect x="358" y="173" width="12" height="1"/>
  <rect x="435" y="173" width="12" height="1"/>
  <rect x="488" y="173" width="12" height="1"/>
  <rect x="585" y="173" width="12" height="1"/>
  <rect x="58" y="174" width="62" height="1"/>
  <rect x="153" y="174" width="32" height="1"/>
  <rect x="305" y="174" width="12" height="1"/>
  <rect x="356" y="174" width="14" height="1"/>
  <rect x="435" y="174" width="13" height="1"/>
  <rect x="488" y="174" width="13" height="1"/>
  <rect x="586" y="174" width="11" height="1"/>
  <rect x="613" y="174" width="13" height="1"/>
  <rect x="640" y="174" width="17" height="1"/>
  <rect x="663" y="174" width="17" height="1"/>
  <rect x="57" y="175" width="63" height="1"/>
  <rect x="154" y="175" width="33" height="1"/>
  <rect x="304" y="175" width="13" height="1"/>
  <rect x="329" y="175" width="12" height="1"/>
  <rect x="354" y="175" width="16" height="1"/>
  <rect x="436" y="175" width="13" height="1"/>
  <rect x="488" y="175" width="15" height="1"/>
  <rect x="586" y="175" width="12" height="1"/>
  <rect x="610" y="175" width="16" height="1"/>
  <rect x="641" y="175" width="16" height="2"/>
  <rect x="664" y="175" width="16" height="4"/>
  <rect x="55" y="176" width="65" height="1"/>
  <rect x="154" y="176" width="34" height="1"/>
  <rect x="277" y="176" width="14" height="1"/>
  <rect x="301" y="176" width="16" height="1"/>
  <rect x="329" y="176" width="13" height="1"/>
  <rect x="351" y="176" width="19" height="1"/>
  <rect x="382" y="176" width="38" height="1"/>
  <rect x="436" y="176" width="17" height="1"/>
  <rect x="469" y="176" width="3" height="1"/>
  <rect x="489" y="176" width="35" height="2"/>
  <rect x="532" y="176" width="44" height="9"/>
  <rect x="586" y="176" width="13" height="1"/>
  <rect x="608" y="176" width="18" height="1"/>
  <rect x="54" y="177" width="65" height="1"/>
  <rect x="155" y="177" width="34" height="1"/>
  <rect x="277" y="177" width="39" height="2"/>
  <rect x="329" y="177" width="41" height="1"/>
  <rect x="381" y="177" width="39" height="8"/>
  <rect x="436" y="177" width="36" height="1"/>
  <rect x="586" y="177" width="40" height="2"/>
  <rect x="641" y="177" width="15" height="3"/>
  <rect x="52" y="178" width="67" height="1"/>
  <rect x="155" y="178" width="36" height="1"/>
  <rect x="330" y="178" width="40" height="1"/>
  <rect x="437" y="178" width="35" height="1"/>
  <rect x="490" y="178" width="34" height="2"/>
  <rect x="51" y="179" width="68" height="1"/>
  <rect x="155" y="179" width="37" height="1"/>
  <rect x="277" y="179" width="38" height="1"/>
  <rect x="330" y="179" width="39" height="1"/>
  <rect x="438" y="179" width="34" height="2"/>
  <rect x="587" y="179" width="39" height="2"/>
  <rect x="665" y="179" width="15" height="1"/>
  <rect x="49" y="180" width="69" height="1"/>
  <rect x="156" y="180" width="37" height="1"/>
  <rect x="277" y="180" width="37" height="1"/>
  <rect x="331" y="180" width="38" height="2"/>
  <rect x="491" y="180" width="33" height="1"/>
  <rect x="642" y="180" width="14" height="1"/>
  <rect x="665" y="180" width="14" height="2"/>
  <rect x="48" y="181" width="70" height="1"/>
  <rect x="156" y="181" width="38" height="1"/>
  <rect x="277" y="181" width="36" height="1"/>
  <rect x="439" y="181" width="33" height="1"/>
  <rect x="492" y="181" width="32" height="1"/>
  <rect x="588" y="181" width="38" height="1"/>
  <rect x="642" y="181" width="13" height="3"/>
  <rect x="46" y="182" width="71" height="1"/>
  <rect x="156" y="182" width="40" height="1"/>
  <rect x="277" y="182" width="35" height="1"/>
  <rect x="332" y="182" width="26" height="1"/>
  <rect x="359" y="182" width="10" height="3"/>
  <rect x="441" y="182" width="31" height="1"/>
  <rect x="493" y="182" width="31" height="1"/>
  <rect x="589" y="182" width="26" height="1"/>
  <rect x="616" y="182" width="10" height="3"/>
  <rect x="666" y="182" width="13" height="2"/>
  <rect x="45" y="183" width="72" height="1"/>
  <rect x="157" y="183" width="40" height="1"/>
  <rect x="277" y="183" width="34" height="1"/>
  <rect x="333" y="183" width="24" height="1"/>
  <rect x="442" y="183" width="30" height="1"/>
  <rect x="494" y="183" width="30" height="1"/>
  <rect x="590" y="183" width="24" height="1"/>
  <rect x="44" y="184" width="72" height="1"/>
  <rect x="157" y="184" width="41" height="1"/>
  <rect x="277" y="184" width="9" height="2"/>
  <rect x="288" y="184" width="21" height="1"/>
  <rect x="334" y="184" width="22" height="1"/>
  <rect x="443" y="184" width="29" height="1"/>
  <rect x="497" y="184" width="27" height="1"/>
  <rect x="591" y="184" width="22" height="1"/>
  <rect x="642" y="184" width="12" height="1"/>
  <rect x="666" y="184" width="12" height="1"/>
  <rect x="42" y="185" width="74" height="1"/>
  <rect x="157" y="185" width="42" height="1"/>
  <rect x="290" y="185" width="17" height="1"/>
  <rect x="336" y="185" width="16" height="1"/>
  <rect x="360" y="185" width="9" height="1"/>
  <rect x="382" y="185" width="38" height="1"/>
  <rect x="446" y="185" width="23" height="1"/>
  <rect x="499" y="185" width="23" height="1"/>
  <rect x="533" y="185" width="43" height="1"/>
  <rect x="593" y="185" width="16" height="1"/>
  <rect x="617" y="185" width="9" height="1"/>
  <rect x="643" y="185" width="11" height="1"/>
  <rect x="667" y="185" width="11" height="1"/>
  <rect x="41" y="186" width="74" height="1"/>
  <rect x="157" y="186" width="43" height="1"/>
  <rect x="296" y="186" width="7" height="1"/>
  <rect x="341" y="186" width="7" height="1"/>
  <rect x="598" y="186" width="6" height="1"/>
  <rect x="40" y="187" width="74" height="1"/>
  <rect x="157" y="187" width="44" height="1"/>
  <rect x="39" y="188" width="75" height="1"/>
  <rect x="157" y="188" width="45" height="1"/>
  <rect x="37" y="189" width="76" height="1"/>
  <rect x="157" y="189" width="46" height="1"/>
  <rect x="36" y="190" width="77" height="1"/>
  <rect x="157" y="190" width="47" height="1"/>
  <rect x="35" y="191" width="77" height="1"/>
  <rect x="157" y="191" width="48" height="1"/>
  <rect x="34" y="192" width="78" height="1"/>
  <rect x="157" y="192" width="49" height="1"/>
  <rect x="33" y="193" width="78" height="2"/>
  <rect x="157" y="193" width="50" height="1"/>
  <rect x="157" y="194" width="51" height="1"/>
  <rect x="32" y="195" width="78" height="1"/>
  <rect x="157" y="195" width="52" height="1"/>
  <rect x="31" y="196" width="78" height="1"/>
  <rect x="157" y="196" width="53" height="2"/>
  <rect x="30" y="197" width="79" height="1"/>
  <rect x="29" y="198" width="79" height="2"/>
  <rect x="157" y="198" width="54" height="1"/>
  <rect x="157" y="199" width="55" height="1"/>
  <rect x="28" y="200" width="79" height="1"/>
  <rect x="157" y="200" width="56" height="1"/>
  <rect x="27" y="201" width="80" height="1"/>
  <rect x="156" y="201" width="57" height="1"/>
  <rect x="27" y="202" width="79" height="1"/>
  <rect x="156" y="202" width="58" height="1"/>
  <rect x="26" y="203" width="80" height="1"/>
  <rect x="156" y="203" width="59" height="2"/>
  <rect x="26" y="204" width="79" height="1"/>
  <rect x="25" y="205" width="80" height="3"/>
  <rect x="156" y="205" width="60" height="1"/>
  <rect x="156" y="206" width="61" height="1"/>
  <rect x="155" y="207" width="62" height="1"/>
  <rect x="24" y="208" width="80" height="3"/>
  <rect x="155" y="208" width="63" height="1"/>
  <rect x="155" y="209" width="64" height="2"/>
  <rect x="23" y="211" width="81" height="5"/>
  <rect x="154" y="211" width="66" height="2"/>
  <rect x="153" y="213" width="68" height="2"/>
  <rect x="153" y="215" width="69" height="1"/>
  <rect x="22" y="216" width="82" height="1"/>
  <rect x="152" y="216" width="70" height="1"/>
  <rect x="22" y="217" width="83" height="2"/>
  <rect x="151" y="217" width="71" height="2"/>
  <rect x="22" y="219" width="84" height="2"/>
  <rect x="150" y="219" width="73" height="2"/>
  <rect x="21" y="221" width="86" height="1"/>
  <rect x="149" y="221" width="74" height="1"/>
  <rect x="21" y="222" width="87" height="1"/>
  <rect x="148" y="222" width="76" height="1"/>
  <rect x="21" y="223" width="88" height="1"/>
  <rect x="147" y="223" width="77" height="1"/>
  <rect x="21" y="224" width="89" height="1"/>
  <rect x="146" y="224" width="78" height="1"/>
  <rect x="21" y="225" width="91" height="1"/>
  <rect x="144" y="225" width="80" height="1"/>
  <rect x="21" y="226" width="92" height="1"/>
  <rect x="143" y="226" width="81" height="1"/>
  <rect x="21" y="227" width="94" height="1"/>
  <rect x="141" y="227" width="83" height="1"/>
  <rect x="21" y="228" width="96" height="1"/>
  <rect x="139" y="228" width="85" height="1"/>
  <rect x="21" y="229" width="97" height="2"/>
  <rect x="138" y="229" width="86" height="5"/>
  <rect x="22" y="231" width="96" height="1"/>
  <rect x="22" y="232" width="95" height="2"/>
  <rect x="22" y="234" width="94" height="2"/>
  <rect x="139" y="234" width="85" height="2"/>
  <rect x="22" y="236" width="93" height="2"/>
  <rect x="140" y="236" width="83" height="2"/>
  <rect x="22" y="238" width="92" height="1"/>
  <rect x="141" y="238" width="82" height="1"/>
  <rect x="23" y="239" width="90" height="1"/>
  <rect x="142" y="239" width="81" height="1"/>
  <rect x="23" y="240" width="89" height="1"/>
  <rect x="143" y="240" width="80" height="1"/>
  <rect x="23" y="241" width="88" height="1"/>
  <rect x="144" y="241" width="78" height="2"/>
  <rect x="24" y="242" width="86" height="1"/>
  <rect x="24" y="243" width="85" height="1"/>
  <rect x="145" y="243" width="76" height="1"/>
  <rect x="25" y="244" width="83" height="1"/>
  <rect x="146" y="244" width="75" height="1"/>
  <rect x="25" y="245" width="81" height="1"/>
  <rect x="148" y="245" width="73" height="1"/>
  <rect x="26" y="246" width="79" height="1"/>
  <rect x="149" y="246" width="71" height="1"/>
  <rect x="26" y="247" width="78" height="1"/>
  <rect x="150" y="247" width="69" height="1"/>
  <rect x="27" y="248" width="75" height="1"/>
  <rect x="151" y="248" width="68" height="1"/>
  <rect x="27" y="249" width="73" height="1"/>
  <rect x="152" y="249" width="66" height="1"/>
  <rect x="28" y="250" width="71" height="1"/>
  <rect x="154" y="250" width="64" height="1"/>
  <rect x="29" y="251" width="68" height="1"/>
  <rect x="155" y="251" width="62" height="1"/>
  <rect x="29" y="252" width="67" height="1"/>
  <rect x="156" y="252" width="60" height="1"/>
  <rect x="30" y="253" width="64" height="1"/>
  <rect x="157" y="253" width="58" height="1"/>
  <rect x="31" y="254" width="62" height="1"/>
  <rect x="159" y="254" width="55" height="1"/>
  <rect x="32" y="255" width="59" height="1"/>
  <rect x="160" y="255" width="53" height="1"/>
  <rect x="34" y="256" width="55" height="1"/>
  <rect x="162" y="256" width="50" height="1"/>
  <rect x="34" y="257" width="53" height="1"/>
  <rect x="163" y="257" width="48" height="1"/>
  <rect x="36" y="258" width="48" height="1"/>
  <rect x="165" y="258" width="45" height="1"/>
  <rect x="38" y="259" width="44" height="1"/>
  <rect x="167" y="259" width="41" height="1"/>
  <rect x="39" y="260" width="40" height="1"/>
  <rect x="168" y="260" width="39" height="1"/>
  <rect x="41" y="261" width="35" height="1"/>
  <rect x="170" y="261" width="35" height="1"/>
  <rect x="42" y="262" width="32" height="1"/>
  <rect x="172" y="262" width="31" height="1"/>
  <rect x="44" y="263" width="27" height="1"/>
  <rect x="175" y="263" width="26" height="1"/>
  <rect x="47" y="264" width="20" height="1"/>
  <rect x="178" y="264" width="20" height="1"/>
  <rect x="52" y="265" width="9" height="1"/>
  <rect x="183" y="265" width="11" height="1"/>
  </g>
</svg>